<?xml version="1.0" standalone="no"?>
<!DOCTYPE svg PUBLIC "-//W3C//DTD SVG 20010904//EN"
 "http://www.w3.org/TR/2001/REC-SVG-20010904/DTD/svg10.dtd">
<svg version="1.0" xmlns="http://www.w3.org/2000/svg"
 width="1006.000000pt" height="812.000000pt" viewBox="0 0 1006.000000 812.000000"
 preserveAspectRatio="xMidYMid meet">

<g transform="translate(0.000000,812.000000) scale(0.100000,-0.100000)"
fill="#000000" stroke="none">
<path d="M0 4060 l0 -4060 5030 0 5030 0 0 4060 0 4060 -5030 0 -5030 0 0
-4060z m4916 3940 c15 -6 63 -38 107 -71 74 -56 84 -60 124 -57 l43 3 0 -96
c0 -83 -3 -100 -23 -130 -40 -60 -56 -63 -337 -70 -319 -8 -420 -25 -680 -111
-157 -53 -418 -184 -700 -352 -118 -71 -257 -154 -309 -184 -108 -64 -338
-267 -597 -526 -384 -385 -576 -711 -669 -1133 -15 -71 -47 -311 -79 -605
l-54 -487 -45 -98 c-25 -54 -48 -111 -51 -128 -4 -16 12 -156 34 -309 22 -153
40 -282 40 -287 0 -4 -13 -2 -29 4 -25 9 -33 8 -50 -8 -27 -24 -27 -70 2 -120
26 -46 56 -56 85 -27 20 20 20 20 50 -47 17 -36 54 -124 82 -196 76 -193 132
-302 193 -375 127 -153 370 -400 656 -667 168 -158 375 -352 459 -431 l153
-145 70 12 c46 9 80 21 98 37 38 32 45 30 37 -8 -7 -35 -51 -88 -74 -88 -33 0
1 -27 103 -81 197 -105 350 -150 580 -169 280 -23 481 -54 752 -114 159 -36
164 -36 220 -22 81 21 220 44 336 56 55 5 105 13 112 18 7 4 41 33 74 64 56
53 61 61 61 99 0 40 1 41 18 26 34 -31 44 16 17 81 l-16 37 31 -30 c17 -16 45
-51 62 -78 l31 -48 24 36 c28 41 63 48 63 13 1 -37 16 -1 24 54 4 27 10 48 14
48 4 0 16 -14 26 -32 21 -34 22 -33 58 32 17 30 19 31 82 28 l65 -3 -1 -31
c-2 -68 37 -72 107 -10 l50 44 33 -39 c36 -42 72 -50 129 -28 86 32 764 510
1193 839 111 85 222 170 247 189 l45 35 -6 -65 -6 -64 26 75 c15 41 28 76 30
78 1 2 12 -2 24 -8 40 -22 66 -4 130 89 75 110 260 292 260 257 0 -9 -91 -230
-139 -336 -135 -299 -309 -575 -525 -834 -82 -97 -94 -117 -101 -161 -15 -108
-56 -145 -157 -145 -112 0 -172 -36 -151 -91 12 -32 7 -35 -21 -14 -11 8 -38
15 -60 15 -57 0 -190 -44 -194 -64 -2 -8 17 -37 41 -63 50 -54 77 -109 77
-159 l0 -34 -57 63 c-31 34 -60 63 -63 65 -27 12 -356 -308 -387 -376 -8 -17
-11 -48 -7 -84 l6 -58 -90 0 c-81 0 -94 -3 -118 -23 -24 -21 -27 -32 -32 -100
-2 -42 -7 -77 -9 -77 -20 0 -67 38 -102 83 -23 30 -51 57 -63 61 -29 7 -232
-36 -296 -64 -49 -21 -50 -23 -45 -57 4 -24 2 -38 -8 -43 -24 -15 -101 2 -162
36 -135 77 -217 100 -316 89 -103 -11 -129 -10 -231 13 -148 33 -322 46 -525
38 -161 -5 -384 -24 -495 -42 l-40 -7 0 56 c0 31 -4 59 -10 62 -5 3 -10 1 -10
-5 0 -6 -11 -16 -25 -22 -22 -10 -35 -4 -127 52 -57 35 -206 117 -333 183
-213 111 -234 120 -281 118 -123 -4 -292 53 -396 135 -100 78 -130 87 -323 94
-131 5 -180 11 -215 25 -184 75 -316 250 -376 496 -40 169 -43 177 -78 214
-18 19 -46 38 -62 41 -27 5 -32 14 -73 132 -62 181 -149 392 -309 752 -77 173
-156 354 -175 401 -40 96 -60 214 -55 319 l3 65 37 -3 c30 -3 40 1 53 21 15
23 15 32 0 113 -44 233 -119 449 -246 703 -76 154 -79 162 -70 203 5 24 28
165 51 313 48 311 70 423 112 555 90 283 170 398 465 672 215 200 283 277 318
365 83 207 53 167 333 445 282 279 440 420 497 444 31 13 64 14 201 8 155 -6
164 -6 169 12 33 110 139 230 249 285 66 32 75 34 181 34 131 0 122 -5 277
137 79 71 116 98 131 96 21 -3 22 -8 20 -86 -2 -63 0 -81 10 -76 6 4 33 22 59
40 90 61 274 148 478 225 113 43 210 78 217 78 6 1 24 -4 39 -9z m1569 -255
c167 -27 441 -124 625 -222 203 -108 367 -230 515 -384 96 -100 115 -129 494
-734 l393 -630 29 -225 c43 -333 59 -517 59 -672 0 -139 0 -139 22 -136 14 2
35 22 55 53 18 27 44 55 57 62 l25 13 -25 -71 c-54 -155 -106 -428 -120 -631
-5 -64 -10 -96 -17 -89 -18 18 -20 221 -3 365 22 191 23 183 -15 152 -17 -14
-34 -26 -38 -26 -20 0 -42 42 -48 90 -6 51 -10 58 -93 139 -93 92 -139 155
-215 294 l-48 89 18 74 c32 136 7 274 -63 347 -15 16 -55 49 -89 73 -76 54
-109 102 -155 219 -68 174 -92 285 -80 378 2 20 1 37 -2 37 -4 0 -39 -16 -78
-36 -48 -24 -87 -37 -117 -38 -52 -1 -44 -6 -496 317 -304 218 -699 481 -855
570 -110 62 -118 65 -201 71 -225 16 -446 123 -509 247 -41 80 -16 169 60 213
30 18 52 21 150 21 63 0 124 -3 135 -7 16 -6 23 -1 36 25 29 60 59 67 294 67
137 0 241 -5 300 -15z m-1566 -2762 c6 -21 53 -211 106 -423 53 -212 98 -393
101 -403 5 -16 -2 -18 -78 -15 l-83 3 -20 98 -19 97 -117 0 -116 0 -19 -97
-20 -98 -77 -3 c-54 -2 -77 1 -77 9 0 10 205 826 215 857 3 8 32 12 99 12 l95
0 10 -37z m-915 -93 c14 -17 30 -48 35 -68 148 -557 281 -1079 281 -1102 0
-19 -7 -33 -19 -40 -26 -13 -1091 -14 -1091 0 0 5 74 170 165 367 91 197 165
361 165 365 0 5 -80 8 -179 8 l-179 0 -110 -242 c-161 -353 -164 -360 -168
-356 -8 9 -265 1006 -267 1035 -2 67 -44 63 683 63 l658 0 26 -30z m1543 -74
c1 -1 -3 -34 -9 -73 l-11 -72 -37 1 c-51 1 -76 -15 -102 -65 -21 -39 -23 -57
-26 -254 l-3 -213 -80 0 -79 0 0 335 0 335 70 0 70 0 1 -32 c1 -18 4 -44 8
-58 l7 -24 12 29 c20 47 49 76 90 91 29 10 74 10 89 0z m962 -19 c34 -17 52
-35 70 -72 25 -47 26 -58 29 -259 3 -166 7 -214 18 -227 12 -14 13 -25 3 -63
-6 -25 -15 -49 -20 -52 -16 -9 -97 33 -109 58 -7 12 -14 25 -16 27 -2 2 -16
-11 -31 -29 -64 -76 -182 -82 -257 -12 -40 38 -56 82 -56 154 1 144 74 212
241 225 l79 6 -6 51 c-9 77 -30 100 -94 104 -29 2 -72 -4 -98 -12 -25 -9 -49
-13 -53 -9 -8 10 -29 72 -29 88 0 10 58 31 135 49 44 11 151 -4 194 -27z m614
19 c47 -20 84 -65 96 -116 6 -25 11 -161 11 -302 l0 -258 -80 0 -80 0 0 263
c0 221 -2 266 -16 285 -26 38 -73 23 -116 -38 l-28 -38 0 -236 0 -236 -75 0
-75 0 0 335 0 335 65 0 65 0 6 -40 c4 -22 8 -40 10 -40 2 0 20 18 41 41 51 54
116 71 176 45z m-1354 -289 c29 -153 56 -276 58 -273 3 2 30 127 62 278 l57
273 78 3 c65 2 78 0 73 -11 -3 -8 -44 -162 -92 -342 -47 -181 -94 -349 -104
-375 -40 -105 -112 -177 -207 -206 -76 -23 -75 -24 -88 58 -7 36 -6 36 41 52
59 20 74 31 107 80 35 52 34 76 -2 76 l-29 0 -81 324 c-45 179 -82 330 -82
336 0 7 26 10 77 8 l78 -3 54 -278z m-2309 -168 c0 -7 -61 -145 -136 -308
-182 -394 -273 -601 -280 -637 -4 -22 0 -34 16 -49 21 -19 40 -20 335 -23
l313 -3 11 -31 c6 -17 11 -35 11 -39 0 -11 -930 -12 -947 -1 -22 14 -34 62
-24 96 11 39 438 975 453 993 14 17 248 19 248 2z m2699 -688 c36 -36 1 -88
-47 -70 -31 12 -37 34 -18 64 20 30 39 32 65 6z m-461 -253 l2 -238 -35 0
c-26 0 -35 4 -35 17 0 14 -3 13 -23 -5 -48 -45 -124 -16 -147 54 -30 90 -2
236 51 265 28 14 78 14 92 0 22 -22 27 -9 27 70 l0 80 33 -3 32 -3 3 -237z
m163 150 c0 -51 3 -87 6 -80 8 21 57 40 86 35 51 -10 62 -42 65 -200 l4 -143
-41 0 -41 0 0 134 c0 145 -8 169 -48 147 -29 -15 -32 -31 -32 -162 l0 -119
-40 0 -40 0 0 233 c0 129 3 237 7 240 3 4 21 7 40 7 l33 0 1 -92z m757 -150
l2 -238 -34 0 c-22 0 -36 6 -40 16 -6 15 -9 15 -29 -5 -45 -42 -116 -19 -143
45 -35 83 -7 246 47 275 28 14 78 14 92 0 22 -22 27 -9 27 70 l0 80 38 -3 37
-3 3 -237z m-1878 192 c45 -23 48 -30 23 -53 -16 -13 -20 -14 -37 -1 -23 17
-69 18 -98 3 -32 -17 -48 -71 -47 -161 0 -135 30 -182 103 -164 25 6 26 9 26
71 0 62 -1 65 -24 65 -17 0 -25 7 -28 25 -3 13 -3 27 0 30 3 3 34 5 69 5 l63
0 0 -110 0 -111 -42 -19 c-94 -43 -189 -15 -229 66 -29 60 -31 197 -5 259 44
103 135 142 226 95z m291 -104 c29 -12 39 -54 39 -159 0 -56 4 -108 9 -115 12
-19 1 -62 -15 -62 -8 0 -23 9 -34 20 l-21 21 -26 -21 c-35 -28 -84 -26 -117 5
-22 20 -26 33 -26 75 0 44 5 56 29 81 24 24 38 29 76 29 51 0 61 12 46 54 -14
34 -35 42 -83 29 -36 -10 -39 -9 -44 14 -8 30 -6 32 47 41 41 8 82 3 120 -12z
m304 10 c45 -19 55 -58 55 -213 l0 -123 -40 0 -40 0 0 126 c0 157 -14 190 -60
144 -18 -18 -20 -33 -20 -145 l0 -125 -40 0 -40 0 0 170 0 170 31 0 c23 0 32
-5 36 -21 6 -20 6 -20 27 -1 17 16 34 26 54 31 1 1 18 -5 37 -13z m1541 -13
c32 -21 54 -74 54 -132 l0 -51 -85 0 c-82 0 -85 -1 -85 -23 0 -56 48 -81 105
-55 22 10 27 9 40 -8 22 -30 -11 -56 -77 -61 -104 -8 -153 54 -146 187 3 70 6
82 34 116 17 21 42 42 55 45 30 9 77 1 105 -18z m-706 -153 l0 -170 -40 0 -40
0 0 170 0 170 40 0 40 0 0 -170z m891 37 c15 -70 29 -130 31 -132 2 -2 12 35
22 83 41 201 34 182 72 182 19 0 34 -5 34 -12 0 -6 -19 -83 -41 -170 l-42
-158 -47 0 -47 0 -41 159 c-23 87 -42 164 -42 170 0 8 13 11 38 9 l37 -3 26
-128z"/>
<path d="M1731 2976 c16 -29 32 -75 35 -102 9 -64 17 -79 66 -114 51 -38 65
-38 39 -2 -11 16 -39 73 -62 128 -42 99 -72 144 -95 144 -7 0 -1 -20 17 -54z"/>
<path d="M1600 3005 c-16 -19 -6 -41 50 -105 44 -50 44 -56 5 68 -17 53 -33
64 -55 37z"/>
<path d="M4766 4687 c-22 -106 -42 -200 -44 -209 -4 -16 5 -18 88 -18 91 0 92
0 87 23 -3 12 -22 103 -42 202 -21 99 -40 183 -44 187 -3 4 -24 -79 -45 -185z"/>
<path d="M6364 4449 c-47 -13 -67 -42 -71 -102 -8 -98 54 -148 119 -97 37 28
49 68 46 141 -3 63 -3 64 -33 66 -16 1 -44 -2 -61 -8z"/>
<path d="M5550 3450 c-20 -20 -24 -49 -20 -134 3 -60 16 -86 43 -86 43 0 57
28 57 118 0 69 -3 85 -20 102 -11 11 -24 20 -30 20 -5 0 -19 -9 -30 -20z"/>
<path d="M6465 3456 c-16 -11 -20 -30 -23 -90 -5 -91 9 -136 43 -136 42 0 55
29 55 122 0 70 -3 88 -18 101 -23 21 -33 21 -57 3z"/>
<path d="M4930 3322 c-19 -16 -22 -24 -16 -55 4 -20 12 -38 19 -38 46 -5 67
19 67 73 0 33 -3 38 -24 38 -13 0 -34 -8 -46 -18z"/>
<path d="M6770 3451 c-5 -11 -10 -34 -10 -51 0 -31 0 -31 48 -28 47 3 47 3 44
37 -1 19 -7 41 -14 48 -16 19 -56 16 -68 -6z"/>
</g>
</svg>
